<svg width="0" height="0" class="hidden">
  <symbol xmlns="http://www.w3.org/2000/svg" viewBox="0 0 512 512" id="icon-feed">
    <path d="M507 257c0 3.8-.1 7.7 0 11.5.9 31.2-7.5 60.5-19.7 88.7-18.7 43.1-47.8 77.9-86.1 104.7-29.1 20.4-61.4 33.7-96.4 40.4-21.8 4.1-43.7 4.9-65.6 3.5-34.1-2.3-66.4-11.6-96.7-27.7-38.9-20.6-70.4-49.4-94.3-86.4-18.7-29-30.6-60.7-36.3-94.8-3.3-19.7-4-39.5-2.5-59.2 3.8-48.6 20.2-92.7 49.9-131.4 36.6-47.7 84-79.5 142.8-92.6 77.7-17.3 148.7-1.3 211.7 47.6 37.9 29.4 64.5 67.4 80.5 112.6 9.5 26.8 15 54.4 12.7 83.1zM221.1 139.1c-13.2 0-26.3.9-39.4 1.8-24.9 1.8-49.5 5.8-73.6 12.3-5.1 1.4-10.3 2.9-14.4 6.6-8.1 7.4-10.1 19.2-4.9 28.7 5.3 9.7 16.2 14.3 27.3 11.1 33.9-9.9 68.7-13.3 103.9-13.7 8.3-.1 16.6.4 24.9.7 16.1.5 32.2 2 48.1 4.6 40 6.4 78.6 17 113.9 37.6 11.3 6.6 25.4 2.3 31.6-8.8 6.3-11.3 2.5-25.3-8.9-32-16.6-9.7-34-17.5-52.1-23.9-50.7-17.8-103-24.6-156.4-25zm185.1 150.3c.5-8.8-4.2-14.3-11.3-18.4-22.8-13.4-46.9-23.5-72.3-30.9-31-9-62.6-13.6-94.8-14.8-15.8-.6-31.6.2-47.4 1.7-21.4 2-42.4 6-63 12.2-11.3 3.4-16.6 13.9-13.7 24.6 2.3 8.4 13.3 16.6 25.1 12.8 29.1-9.3 59.2-12.2 89.5-12.3 15.9 0 31.8 1.1 47.6 3.6 20.6 3.2 40.8 7.7 60.5 14.5 17.7 6.1 34.5 13.9 50.7 23.4 13.2 7.9 29-1.1 29.1-16.4zm-182.6 17.5c-17.6.1-31.4.5-45.2 2.1-18 2.1-35.9 5-53.5 9.2-8.4 2-13.2 10.3-11.3 18.3 2.2 9 10 13.9 18.8 12 18-4 36.1-7.1 54.5-8.8 24.3-2.3 48.4-2.2 72.6 1 32.8 4.4 63.4 14.6 91.7 31.7 8 4.9 17.3 2.6 21.8-5s2.2-16.7-5.6-21.7c-10.3-6.5-21.2-12-32.4-16.7-36.8-15.7-75.3-22.7-111.4-22.1z" fill="#fff"></path>
  </symbol>
  <symbol xmlns="http://www.w3.org/2000/svg" viewBox="0 0 144.083 144" id="icon-link">
    <path d="M72.04 14.166c-31.939 0-57.833 25.894-57.833 57.833 0 31.94 25.893 57.835 57.833 57.835 31.941 0 57.836-25.895 57.836-57.835-.001-31.939-25.895-57.833-57.836-57.833zM48.042 40.25c3.934 0 7.125 2.91 7.125 6.5s-3.191 6.5-7.125 6.5c-3.936 0-7.125-2.91-7.125-6.5s3.189-6.5 7.125-6.5zm7.179 55.595H41.143V59.11h14.078v36.735zm47.838 0H88.913v-20.2c0-2.306-.428-3.938-1.281-4.896-.854-.956-2.053-1.436-3.596-1.436-1.707 0-3.092.646-4.152 1.938-1.061 1.292-1.59 3.609-1.59 6.953v17.641H64.215V59.11h13.109v5.983c1.959-2.443 3.943-4.19 5.949-5.24 2.006-1.049 4.449-1.573 7.332-1.573 3.898 0 6.947 1.158 9.15 3.476 2.201 2.317 3.303 5.897 3.303 10.74v23.349z"></path>
  </symbol>
  <symbol xmlns="http://www.w3.org/2000/svg" viewBox="0 0 512 512" id="icon-pinterest">
    <path d="M232.2 336.4c-1.5 4.1-1.9 8.1-2.8 11.9-3.9 15.7-6.9 31.6-10.7 47.3-2.9 11.9-6 23.9-10.2 35.5-3.6 10.2-8.5 20.1-13.4 29.8-7.6 15.3-16.9 29.7-27 43.4-1.7 2.3-2.6 6.3-6.1 5.4-4.2-1.1-3.5-5.4-3.9-8.8-2.9-21.7-3.7-43.4-3-65.2.4-11.4.8-23 3.6-34.1 2.9-11.3 5-22.8 7.7-34.1 1.9-8 3.7-16.2 4.9-24.4 1.1-7.7 4.1-15.1 5.3-22.7 1.6-10.3 4.5-20.3 6.6-30.5 1.9-9.2 4.3-18.4 6.2-27.6 1.3-6.3 2.6-12.5 4.3-18.7.8-3 .2-6.2-1.3-9.5-4-8.8-4.9-18.5-6.3-27.9-1.8-12.1-.8-24.3 2.1-36.1 4.5-18.1 11.7-34.7 28.4-45.5 18.5-11.9 44.6-6.5 52.8 15.2 5.2 14 4.1 27.8 2.1 42-1.7 12.3-5.4 24.1-8.8 35.9-2.7 9.1-5.6 18.2-7.9 27.4-1.8 7.5-5.2 14.9-4.8 22.9.2 4.4-.8 8.7-.5 13.3 1.1 17.9 11.3 29.2 26.3 36 8.4 3.8 18.1 4 27.9 1.5 10.3-2.6 18.8-7.4 26.8-13.7 9.1-7.2 15.3-16.8 21.3-26.4 6.2-9.9 10.3-21 13.8-32.1 4.5-14.6 7.6-29.7 9.7-45 1.6-12 1.6-23.9 1.9-35.8.5-21.9-5.1-42.4-15.6-61.2-6.5-11.7-16.2-20.9-27.3-29-9.3-6.7-19.7-10.2-29.8-14.5-3.4-1.5-7.3-1.7-10.9-2.6-11.8-2.9-24-2.7-36-2.2-14.8.6-29.1 3.8-42.8 9.4-14.5 6-27.5 14.5-38.7 25.4-11.7 10.9-20.9 23.9-28.1 38.4-5.6 11.4-9.7 23.6-11.6 35.9-2.3 15.3-4.1 30.7-1.2 46.5 1.8 10.1 5 19.6 9.1 28.8 1.9 4.3 4.9 8.2 8.1 11.7 3.7 4.1 4.3 8.6 3.3 13.4-1.7 8.4-3.8 16.8-5.9 25.1-1.6 6.4-8.9 9.3-15.1 6.2-18.8-9.7-32.2-24.4-40.6-43.8-7.7-17.9-12.1-36.6-12.2-56.3-.1-13.8-.9-27.7 2.3-41.2 2.5-10.9 5.4-21.6 9.4-32.1 5.1-13.4 11.9-25.6 19.7-37.5 11.6-17.8 26.6-32.5 43.8-44.9 13.1-9.5 27.4-17.3 42.5-22.7 9.5-3.4 19.3-5.9 29.3-8 17.9-3.6 35.8-4.9 53.8-4.3 9.7.3 19.2 2.7 28.8 4.1 13 2 24.8 6.9 36.6 12 7.9 3.4 15.4 7.9 22.6 12.8 11.4 7.7 21.6 16.8 30.7 27 10.8 12 19.2 25.6 26.1 40.3 3.4 7.1 5.7 14.6 8.9 21.8 1.4 3.1 1.8 6.9 2.3 10.4.9 5.8 1.6 11.8 2.8 17.4 2.5 11.8 1.6 23.5 1.2 35.1-.3 9.9-1.1 19.9-3.4 29.7-1.1 4.6-.8 9.3-2 14.1-2 7.7-3.8 15.5-5.9 23.2-3.2 12-7.9 23.4-13.4 34.4-11.8 23.8-27.4 44.6-49.7 59.9-7.9 5.4-16.1 10.2-25 13.7-19.6 7.5-40.1 10.8-60.8 6.7-19.1-3.8-35.5-13.1-47.3-29.4-.7-1.3-1.8-2-3-3.1z" fill="#fff"></path>
  </symbol>
  <symbol xmlns="http://www.w3.org/2000/svg" viewBox="0 0 512 512" id="icon-tweet">
    <path d="M3.5 421.4c56 5.1 106.1-8.9 151.5-42.9-7-1.6-13.4-1.6-19.5-3.1-35.7-8.5-60.4-30-74.9-63.5-.7-1.7-2.5-3.8-.9-5.5 1.2-1.3 3.5-.2 5.2 0 12.6 1.3 25.2.9 37.6-2 .2-2.2-1.4-2-2.6-2.4-30.7-8.2-53-26.5-67.4-54.8-6.6-13-10.2-26.6-10.6-41.2-.2-5.7.1-5.8 5.4-3.3 12.6 6 25.8 9.4 40.9 10.1-6.9-5.6-13.1-10.5-18.4-16.4-16.1-17.9-25.1-38.8-27-62.9-1.5-19.6 2.6-37.9 11.1-55.5 1.9-3.9 3.6-3.6 6-.7C56.6 97.7 76.1 115 97.6 130c16 11.2 33 20.5 50.9 28.4 23.6 10.3 48.1 17.2 73.5 21.3 8 1.3 16.2 1.6 24.3 2.4 4.1.4 5.2-.8 4.4-5-4.1-21.6-1.3-42.6 8.1-62.3 16.1-33.6 43.1-54 79.8-59.4 32.6-4.8 61.9 4.5 86.2 27.4 3.7 3.5 7 4.4 12 3.1 19.6-5 38.3-12.1 55.9-22.1.5-.3 1.1-.4 2.9-1.1-8.2 24.1-22.7 41.9-43 55.5 4.7.9 18.6-1.6 28.2-4.6 9.2-2.9 18.4-5.5 27.2-9.4 1.2 1.3.1 2-.4 2.7-11.7 16.5-25.1 31.4-41.1 43.8-2.2 1.7-4.3 3.6-6.6 5.2-1.7 1.2-1.8 2.7-1.7 4.4.7 18.2-.6 36.3-3.2 54.2-2.7 18.3-7.3 36.1-13.4 53.6-5 14.3-10.9 28.2-17.9 41.7-17.3 33.2-39.8 62.4-67.9 87.3-29.9 26.4-63.9 45.4-101.9 57.2-23.7 7.4-48 11.7-72.9 13-19.2 1-38.3.7-57.3-1.7-27.2-3.3-53.4-10.7-78.6-21.5-12.9-5.5-25.1-12.1-37.3-19-1.7-.7-3.4-1.5-4.3-3.7z" fill="#fff"></path>
  </symbol>
</svg>
